<?xml version="1.0" encoding="UTF-8"?>
<svg id="_Слой_1" data-name="Слой 1" xmlns="http://www.w3.org/2000/svg" xmlns:xlink="http://www.w3.org/1999/xlink" viewBox="0 0 518.8 532.68">
  <defs>
    <style>
      .cls-1 {
        fill: #5474f6;
      }

      .cls-2 {
        fill: #5e97f7;
      }

      .cls-3 {
        fill: #301653;
      }

      .cls-4 {
        fill: #9a69f5;
      }

      .cls-5 {
        fill: #9424ef;
      }

      .cls-6 {
        fill: url(#_Безымянный_градиент_2);
      }

      .cls-7 {
        fill: #a04df2;
      }

      .cls-8 {
        fill: #426af5;
      }

      .cls-9 {
        fill: #ba5bf6;
      }

      .cls-10 {
        fill: url(#_Безымянный_градиент);
      }

      .cls-11 {
        fill: #7f39eb;
      }

      .cls-12 {
        fill: #5b3889;
      }

      .cls-13 {
        fill: #542ec7;
      }

      .cls-14 {
        fill: #0d0122;
      }

      .cls-15 {
        fill: #47a7f7;
      }
    </style>
    <linearGradient id="_Безымянный_градиент" data-name="Безымянный градиент" x1="-421.57" y1="291.3" x2="-471.39" y2="-552.51" gradientTransform="translate(479.25 256.39) scale(.5 -.5)" gradientUnits="userSpaceOnUse">
      <stop offset="0" stop-color="#0a011e"/>
      <stop offset="1" stop-color="#160037"/>
    </linearGradient>
    <linearGradient id="_Безымянный_градиент_2" data-name="Безымянный градиент 2" x1="-850.25" y1="-281.17" x2="-327.15" y2="160.11" gradientTransform="translate(479.25 256.39) scale(.5 -.5)" gradientUnits="userSpaceOnUse">
      <stop offset="0" stop-color="#cb18f0"/>
      <stop offset="1" stop-color="#512cec"/>
    </linearGradient>
  </defs>
  <path class="cls-10" d="M.16,239.32v-60.55c-.01-10.73-.51-26.99.37-37.32,3.01-34.48,17.66-66.92,41.52-91.99C70.77,19.14,110.33,1.43,152.07.2c13.67-.42,29.12-.03,42.91,0l77.74.03,58.47-.02c25.68-.02,45.19-1.56,70.54,4.95,25.96,6.87,49.77,20.19,69.21,38.72,27.36,25.98,46.28,64.2,47.24,102.14.88,5.01.48,20.52.44,26.12l-.1,43.47v114.93c.04,21.37,1.28,55.31-2.07,75.08-3.6,21.84-12.1,42.57-24.85,60.66-23.68,33.63-59.68,56.54-100.18,63.76-19.86,3.54-41.28,2.54-61.57,2.52h-147.23c-17.13-.04-35.92.78-52.63-2.1-23.5-3.82-45.83-12.92-65.3-26.63-32.98-23.08-55.46-58.28-62.51-97.9C-.89,387.82.18,359.88.18,340.73l-.02-101.42Z"/>
  <path class="cls-6" d="M218.79,109.09c2.25.91,17.72,2.6,20.46,2.45l-.05.42c10.4,1.96,20.72,4.26,30.97,6.9,8.78,2.17,18.23,4.81,27.14,5.89-1.93,5.81-6.82,15.88-9.49,21.9-2.76,7.44-6.52,14.13-9.56,21.28-9.3,21.82-19.48,43.4-28.83,65.19l56.38-.02c10.29-.01,26.42-1,36.14,1.34,22.45,5.41,31.94,34.7,13.25,50.48-15.73,14.21-31.46,27.73-47.23,41.55l-91.26,79.89-48.64,42.83c-17.06,14.96-35.74,37.09-58.78,14.68-14.65-14.24-1.47-35.98,4.83-51.2l21.48-51.81c3.71-8.87,9.51-21.55,12.34-30.18h-47.81c-9.11.02-20,.71-28.9-.71-21.48-3.43-31.67-29.37-20.95-47.39,3.64-6.01,11.01-12.89,16.07-18.13l21.03-21.84c27.54-28.58,55.43-57.06,83.37-85.26.91-.91,5.27-5.28,6.13-5.91,9.33-9.89,19.28-19.36,28.74-29.22.17-.11,1.5-1.5,1.74-1.74,3.47-3.93,7.46-7.39,11.06-11.12.12-.09.25-.19.37-.28Z"/>
  <path class="cls-11" d="M218.79,109.09c2.25.91,17.72,2.6,20.46,2.45l-.05.42c10.4,1.96,20.72,4.26,30.97,6.9,8.78,2.17,18.23,4.81,27.14,5.89-1.93,5.81-6.82,15.88-9.49,21.9-1.22-2.26.69-3.46-1.1-3.73-27.14-4.01-55.22-5.16-81.96.99-5.57,1.27-11.11,2.68-16.61,4.22-2.09.6-9.96,3.23-11.27,3.32,9.33-9.89,19.28-19.36,28.74-29.22.17-.11,1.5-1.5,1.74-1.74,3.47-3.93,7.46-7.39,11.06-11.12.12-.09.25-.19.37-.28Z"/>
  <path class="cls-7" d="M218.79,109.09c2.25.91,17.72,2.6,20.46,2.45l-.05.42c-7.28.2-15.26,3.8-22.33,5.51-3.09.75-6.47,2.77-9.52,3.02,3.47-3.93,7.46-7.39,11.06-11.12.12-.09.25-.19.37-.28Z"/>
  <path class="cls-14" d="M230.98,151.05c.83,7.02-37.19,82.22-37.21,97.43-.01,7.53,2.99,14.75,8.35,20.05,11.7,11.6,30.82,8.75,46.21,8.77l56.23.12c-4.93,4.7-11.57,10.18-16.78,14.76l-30.38,26.9-83.07,73.49c-3.06,2.58-6.13,5.54-9.08,8.28,1.7-4.69,6.33-14.01,8.57-18.84l17.99-38.45c7.54-16.09,16.76-31.62,1.15-47.11-3.94-3.83-8.88-6.49-14.25-7.67-5.46-1.2-21.41-.8-27.83-.8l-45.84-.02c26.74-29.72,54.72-59.75,81.85-89.15l26.33-28.52c5.79-6.35,11.69-13.21,17.76-19.23Z"/>
  <path class="cls-12" d="M.16,239.32v-60.55c-.01-10.73-.51-26.99.37-37.32,3.01-34.48,17.66-66.92,41.52-91.99C70.77,19.14,110.33,1.43,152.07.2c13.67-.42,29.12-.03,42.91,0l77.74.03,58.47-.02c25.68-.02,45.19-1.56,70.54,4.95,25.96,6.87,49.77,20.19,69.21,38.72,27.36,25.98,46.28,64.2,47.24,102.14l-.05.57c-.55,7.63.46,20.38-.31,26.89-1.2-.1-2.64-.39-3.6-1.18l-.15.41c-15.19-4.28-39.32-13.52-54.43-16.14-.01-2.63,0-4.05-.41-6.71l.21-1.42c-2.82-20.86-8.7-34.37-22.02-50.63l-.34-.28c-1.16-1.36-2.17-2.43-3.45-3.69-3.41,2.42-7.92,5.43-11.09,7.9l-2.82,1.21c-3.24-1.76-26.64,3.15-31.08,3.34-1.91.08-6.11.44-7.45,1.97l-1.1-1.65c-15.3.12-30.18-.19-45.45-1.31-2.12-.15-4.28-.09-6.41.01l-.34.16c-1.9-1.56-17.84-1.3-21.38-1.31-2.86,6.62-6.41,13.97-9.02,20.5l-.21.1c-8.91-1.08-18.36-3.73-27.14-5.89-10.24-2.63-20.57-4.93-30.97-6.9l.05-.42c-2.73.14-18.21-1.54-20.46-2.45-.12.09-.25.19-.37.28-4.16-1.14-19.86-1.58-24.87-1.73l-.27.06c-3.04-.13-6.41-.09-9.48-.12-4.9-1.31-17.69-2.04-23.67-2.96-17.96-2.76-47.98-11.71-63.48-20.68-5.44,3.96-11.56,9.25-15.94,14.38l-.26.18c-13.1,16.46-18.52,27.41-22.24,48.57l-.64,6.84c-.22,5.13-.23,9.84-.2,14.96l-.07,38.59c-9.17,6.53-43.01,26.3-52.77,29.99.03-7.29.46-21.68-.3-28.57l-.06.63c-.68,8.33.61,20.37-.39,27.8-1.38,1.07-2.06,1.31-3.61,2.02Z"/>
  <path class="cls-3" d="M.16,239.32v-60.55c-.01-10.73-.51-26.99.37-37.32,3.01-34.48,17.66-66.92,41.52-91.99C70.77,19.14,110.33,1.43,152.07.2c13.67-.42,29.12-.03,42.91,0l77.74.03,58.47-.02c25.68-.02,45.19-1.56,70.54,4.95,25.96,6.87,49.77,20.19,69.21,38.72,27.36,25.98,46.28,64.2,47.24,102.14l-.05.57c-.55,7.63.46,20.38-.31,26.89-1.2-.1-2.64-.39-3.6-1.18l-.15.41c-15.19-4.28-39.32-13.52-54.43-16.14-.01-2.63,0-4.05-.41-6.71l.21-1.42c-2.82-20.86-8.7-34.37-22.02-50.63,1.88-1.15,5.57-2.56,7.65-3.34,18.48-6.98,27.96-24.92,15.88-43.04-14.88-22.32-42.99-34.68-68.39-40.83-17.53-3.85-41.17-3.03-59.16-3.04h-69.67s-73.3,0-73.3,0c-20.34,0-40.59-.97-60.67,2.45-18.14,3.09-33.16,9.68-48.44,18.74-28.55,16.91-45.31,50.04-6.21,66.8,1.43.62,4.27,1.91,5.32,2.96-13.1,16.46-18.52,27.41-22.24,48.57l-.64,6.84c-.22,5.13-.23,9.84-.2,14.96l-.07,38.59c-9.17,6.53-43.01,26.3-52.77,29.99.03-7.29.46-21.68-.3-28.57l-.06.63c-.68,8.33.61,20.37-.39,27.8-1.38,1.07-2.06,1.31-3.61,2.02Z"/>
  <path class="cls-11" d="M.16,239.32v-60.55c-.01-10.73-.51-26.99.37-37.32,3.01-34.48,17.66-66.92,41.52-91.99C70.77,19.14,110.33,1.43,152.07.2c13.67-.42,29.12-.03,42.91,0l77.74.03,58.47-.02c25.68-.02,45.19-1.56,70.54,4.95,25.96,6.87,49.77,20.19,69.21,38.72,27.36,25.98,46.28,64.2,47.24,102.14l-.05.57c-.55,7.63.46,20.38-.31,26.89-1.2-.1-2.64-.39-3.6-1.18,0-12.04.34-24.76-1.12-36.65-3.98-32.15-19.17-62.52-42.05-85.33-20.07-20.31-45.36-34.69-73.07-41.56-19.62-4.88-35.46-4.13-55.32-4.16l-46.18-.04-134.36.04c-9.43.05-17.4.15-26.82,1.41-33.39,4.65-64.28,20.26-87.83,44.38C22.7,75.24,7.58,108.13,4.87,143.14c-1.45,21.39.23,44.61-.64,65.73l-.06.63c-.68,8.33.61,20.37-.39,27.8-1.38,1.07-2.06,1.31-3.61,2.02Z"/>
  <path class="cls-4" d="M218.79,109.09c12.43-12.52,24.93-24.97,37.49-37.36,6.53-6.47,12.89-12.91,19.69-19.13,13.01-12.13,34.96-5.45,40.97,10.63,4.98,13.35-4.99,28.61-10.4,40.93-2.86,6.62-6.41,13.97-9.02,20.5l-.21.1c-8.91-1.08-18.36-3.73-27.14-5.89-10.24-2.63-20.57-4.93-30.97-6.9l.05-.42c-2.73.14-18.21-1.54-20.46-2.45Z"/>
  <path class="cls-7" d="M239.24,111.55c17.97-4.96,48.53-7.99,67.29-7.39-2.86,6.62-6.41,13.97-9.02,20.5l-.21.1c-8.91-1.08-18.36-3.73-27.14-5.89-10.24-2.63-20.57-4.93-30.97-6.9l.05-.42Z"/>
  <path class="cls-9" d="M96.64,83.95c31.16-22.47,54.2-20,90.17-19.85,17.12.07,34.84-.17,52,.03-14.5,14.54-30.31,29.35-45.27,43.51l-.27.06c-3.04-.13-6.41-.09-9.48-.12-4.9-1.31-17.69-2.04-23.67-2.96-17.96-2.76-47.98-11.71-63.48-20.68Z"/>
  <path class="cls-2" d="M385.1,66.76c20.11,5.28,33.41,12.6,48.55,27.08-3.41,2.42-7.92,5.43-11.09,7.9l-2.82,1.21c-3.24-1.76-26.64,3.15-31.08,3.34-1.91.08-6.11.44-7.45,1.97l-1.1-1.65c-2.98-3.86-6.27-7.48-6.41-12.66-.18-6.66,7.23-22.91,11.39-27.19Z"/>
  <path class="cls-1" d="M366.11,63.82c6.9.55,12.3,1.28,18.99,2.94-4.16,4.27-11.58,20.53-11.39,27.19.14,5.18,3.42,8.81,6.41,12.66-15.3.12-30.18-.19-45.45-1.31-2.12-.15-4.28-.09-6.41.01,11.31-11.74,27.51-29.27,37.85-41.49Z"/>
  <path class="cls-11" d="M459.69,220.51l-.03,74.54.05,41.83c.02,18.31,1.38,40.26-4.72,57.4-8.62,24.44-24.47,42.16-47.79,53.76-20.38,10.14-37.27,9.82-59.18,9.67-7.88-.05-16.31.28-24.18-.11-13.47.6-31.08.13-44.89.02,1.61-.68,19.77-4.77,21.13-4.68,19.42-2.54,51.68-23.62,66.69-36.62.57-.49,1.29-1.24,1.63-1.91-2.36-.44-4.07.45-6.27.47-3.81.04-8.91-.12-12.56-1.18,19.16-1.06,31.7,2.55,48.01-13.55,12.42-12.28,12.73-25.93,12.64-42.05,3.67-5.1,7.49-12.37,11.26-18.01-3.6-8.68-9.28-27.68-8.08-37.12,4.04-31.67,22.86-61.74,46.3-82.43Z"/>
  <path class="cls-7" d="M421.29,340.03c9.2-11.89,17.09-23.68,27.89-34.53,3.08-3.1,7.04-7.84,10.48-10.45l.05,41.83c.02,18.31,1.38,40.26-4.72,57.4-1.62-1.54-5.43-7.04-7.02-9.1-11.47-14.79-18.7-28.49-26.68-45.15Z"/>
  <path class="cls-7" d="M278.95,457.62c1.61-.68,19.77-4.77,21.13-4.68-1.38,1.12-8.64,2.36-11.21,3.57-.01,0,37.8-.29,41.52.03l.39.36c-1.96,1.01-5.59.2-6.95.71-13.47.6-31.08.13-44.89.02Z"/>
  <path class="cls-5" d="M256.12,413.46c30.64.95,62.68-.46,93.45.22,3.65,1.05,8.75,1.22,12.56,1.18,2.21-.02,3.91-.91,6.27-.47-.34.67-1.07,1.42-1.63,1.91-15.01,13.01-47.27,34.08-66.69,36.62-1.36-.09-19.52,4.01-21.13,4.68-5.88.46-18.09.07-24.35.07-15.36.06-30.72.01-46.08-.15-2.28-.03-.74-.91.43-1.97,4.67-3.82,10.63-9.48,15.23-13.58l31.94-28.51Z"/>
  <path class="cls-7" d="M208.95,455.56c4.75,2.73,12.36-.49,17.84,1.23l.05.07c-.06.05-15.57.12-18.32.67-2.28-.03-.74-.91.43-1.97Z"/>
  <path class="cls-13" d="M518.19,146.01c.88,5.01.48,20.52.44,26.12l-.1,43.47v114.93c.04,21.37,1.28,55.31-2.07,75.08-3.6,21.84-12.1,42.57-24.85,60.66-23.68,33.63-59.68,56.54-100.18,63.76-19.86,3.54-41.28,2.54-61.57,2.52h-147.23c-17.13-.04-35.92.78-52.63-2.1-23.5-3.82-45.83-12.92-65.3-26.63-32.98-23.08-55.46-58.28-62.51-97.9C-.89,387.82.18,359.88.18,340.73l-.02-101.42c1.56-.71,2.23-.96,3.61-2.02,1.01-7.43-.28-19.46.39-27.8l.06-.63c.75,6.9.33,21.28.3,28.57l-.09,16.16.09,82.7c-.02,18.33-.82,43.21.84,60.89,2.94,31.38,19.72,63.93,41.87,86.14,24.82,24.98,57.54,40.58,92.58,44.13,17.22,1.7,41.34.99,59.09.97h85.2s53.45.04,53.45.04c12.23,0,27.51.41,39.42-.73,35.83-3.38,69.35-19.11,94.84-44.52,19.3-19.34,32.78-43.71,38.89-70.34,4.17-17.56,3.45-33.98,3.46-51.81l-.02-44.09-.07-144.28.15-.41c.96.79,2.4,1.07,3.6,1.18.77-6.51-.24-19.26.31-26.89l.05-.57Z"/>
  <path class="cls-7" d="M80.71,98.33c4.37-5.12,10.5-10.42,15.94-14.38,15.5,8.97,45.52,17.92,63.48,20.68,5.98.92,18.77,1.65,23.67,2.96,3.07.03,6.44-.01,9.48.12-2.18,2.19-4.4,4.49-6.62,6.62l-22.37-.07c-19.02-.03-29.59,1.31-43.72,15.21-12.89.42-50.49,11.94-62.36,17.61,3.73-21.16,9.14-32.1,22.24-48.57l.26-.18Z"/>
  <path class="cls-4" d="M80.71,98.33c4.37-5.12,10.5-10.42,15.94-14.38,15.5,8.97,45.52,17.92,63.48,20.68,5.98.92,18.77,1.65,23.67,2.96-23.61,3.06-59.94.76-83.33-4.01-5.85-1.19-13.57-3.75-19.76-5.25Z"/>
  <path class="cls-8" d="M433.65,93.84c1.28,1.26,2.29,2.33,3.45,3.69l.34.28c13.32,16.26,19.2,29.76,22.02,50.63l-.21,1.42c-.21,1.73.11,4.83.24,6.68-11.34-3.61-24.33-4.35-35.12-6.88-2.57-.6-17.04-12.11-20.44-14.63-3.49-4.37-5.27-6.72-9.32-10.62-5.88-3.8-9.68-5.59-16.26-7.96-13.29-3.49-43.26-2.29-58.65-2.24l8.22-8.74.34-.16c2.13-.1,4.28-.17,6.41-.01,15.27,1.11,30.15,1.43,45.45,1.31l1.1,1.65c1.34-1.53,5.54-1.89,7.45-1.97,4.43-.19,27.84-5.1,31.08-3.34l2.82-1.21c3.17-2.47,7.68-5.48,11.09-7.9Z"/>
  <path class="cls-2" d="M394.6,124.41c2.24.1,59.57,21.73,64.85,24.03l-.21,1.42c-.21,1.73.11,4.83.24,6.68-11.34-3.61-24.33-4.35-35.12-6.88-2.57-.6-17.04-12.11-20.44-14.63-3.49-4.37-5.27-6.72-9.32-10.62Z"/>
  <path class="cls-15" d="M381.21,108.25c1.34-1.53,5.54-1.89,7.45-1.97,4.43-.19,27.84-5.1,31.08-3.34-6.14,3.93-14.16,6.73-20.78,9.76-9.08,4.16-12,4.34-17.75-4.45Z"/>
  <path class="cls-1" d="M433.65,93.84c1.28,1.26,2.29,2.33,3.45,3.69-3.7,1.94-10.43,3.07-14.54,4.21,3.17-2.47,7.68-5.48,11.09-7.9Z"/>
  <path class="cls-13" d="M410.2,192.34c16.04,4.48,32.52,9.35,49.49,8.68v19.49c-23.43,20.7-42.26,50.76-46.29,82.43-1.2,9.44,4.48,28.44,8.08,37.12-3.77,5.64-7.59,12.92-11.26,18.01v-165.73Z"/>
  <path class="cls-3" d="M193.55,107.64c5.01.15,20.71.59,24.87,1.73-3.6,3.73-7.59,7.2-11.06,11.12-.24.24-1.56,1.63-1.74,1.74-11.16.49-81.72,42.33-95.52,51.89-.51-20.43-1.94-28.45,10.47-44.66,14.13-13.9,24.7-15.24,43.72-15.21l22.37.07c2.23-2.13,4.45-4.43,6.62-6.62l.27-.06Z"/>
  <path class="cls-8" d="M403.92,135.02c3.4,2.52,17.88,14.03,20.44,14.63,10.79,2.53,23.78,3.27,35.12,6.88-.12-1.84-.45-4.95-.24-6.68.41,2.65.4,4.08.41,6.71l.04,44.45c-16.97.67-33.45-4.2-49.49-8.68-.07-20.14,2.97-38.96-6.28-57.32Z"/>
  <path class="cls-9" d="M58.2,147.07c11.87-5.67,49.47-17.19,62.36-17.61-12.41,16.21-10.98,24.23-10.47,44.66.02,1.88.02,3.77,0,5.65-3.9,4.11-8.01,8.07-12,12.12-2.25-1.74-5.62-3.3-7.49-5.22l-.29-.1c-11.39-8.99-23.87-21.19-32.74-32.65l.64-6.84Z"/>
  <path class="cls-7" d="M90.6,186.67c5.6-4.05,14.02-8.33,19.49-12.54.02,1.88.02,3.77,0,5.65-3.9,4.11-8.01,8.07-12,12.12-2.25-1.74-5.62-3.3-7.49-5.22Z"/>
  <path class="cls-7" d="M57.56,153.91c8.87,11.46,21.36,23.67,32.74,32.65-10.56,7.14-22.55,14.15-32.65,21.37-.07-9.75.68-30.28-.29-39.07-.02-5.12-.02-9.83.2-14.96Z"/>
  <path class="cls-3" d="M306.53,104.16c3.54,0,19.48-.25,21.38,1.31l-8.22,8.74c15.39-.05,45.36-1.25,58.65,2.24-5.44.1-12.02,1.37-17.46,2.21-21.22,3.27-41.89,5.5-63.38,6.01,2.61-6.53,6.16-13.88,9.02-20.5Z"/>
  <path class="cls-5" d="M57.36,168.87c.97,8.79.22,29.32.29,39.07,10.1-7.22,22.09-14.23,32.65-21.37l.29.1c1.87,1.92,5.24,3.48,7.49,5.22-13.71,13.34-27.33,26.78-40.86,40.31l.06-24.74.07-38.59Z"/>
</svg>